<svg width="32" height="32" viewBox="0 0 32 32" xmlns="http://www.w3.org/2000/svg">
  <rect width="32" height="32" fill="white"/>
  <!-- QR kód pattern pro "AOX" - zjednodušený design -->
  
  <!-- Horní řádek -->
  <rect x="2" y="2" width="2" height="2" fill="black"/>
  <rect x="6" y="2" width="2" height="2" fill="black"/>
  <rect x="8" y="2" width="2" height="2" fill="black"/>
  <rect x="10" y="2" width="2" height="2" fill="black"/>
  <rect x="12" y="2" width="2" height="2" fill="black"/>
  <rect x="16" y="2" width="2" height="2" fill="black"/>
  <rect x="18" y="2" width="2" height="2" fill="black"/>
  <rect x="20" y="2" width="2" height="2" fill="black"/>
  <rect x="22" y="2" width="2" height="2" fill="black"/>
  <rect x="24" y="2" width="2" height="2" fill="black"/>
  <rect x="26" y="2" width="2" height="2" fill="black"/>
  <rect x="28" y="2" width="2" height="2" fill="black"/>
  
  <!-- Druhý řádek -->
  <rect x="2" y="4" width="2" height="2" fill="black"/>
  <rect x="4" y="4" width="2" height="2" fill="black"/>
  <rect x="6" y="4" width="2" height="2" fill="black"/>
  <rect x="8" y="4" width="2" height="2" fill="black"/>
  <rect x="10" y="4" width="2" height="2" fill="black"/>
  <rect x="12" y="4" width="2" height="2" fill="black"/>
  <rect x="14" y="4" width="2" height="2" fill="black"/>
  <rect x="16" y="4" width="2" height="2" fill="black"/>
  <rect x="18" y="4" width="2" height="2" fill="black"/>
  <rect x="20" y="4" width="2" height="2" fill="black"/>
  <rect x="22" y="4" width="2" height="2" fill="black"/>
  <rect x="24" y="4" width="2" height="2" fill="black"/>
  <rect x="26" y="4" width="2" height="2" fill="black"/>
  <rect x="28" y="4" width="2" height="2" fill="black"/>
  
  <!-- Třetí řádek -->
  <rect x="2" y="6" width="2" height="2" fill="black"/>
  <rect x="4" y="6" width="2" height="2" fill="black"/>
  <rect x="6" y="6" width="2" height="2" fill="black"/>
  <rect x="8" y="6" width="2" height="2" fill="black"/>
  <rect x="10" y="6" width="2" height="2" fill="black"/>
  <rect x="12" y="6" width="2" height="2" fill="black"/>
  <rect x="14" y="6" width="2" height="2" fill="black"/>
  <rect x="16" y="6" width="2" height="2" fill="black"/>
  <rect x="18" y="6" width="2" height="2" fill="black"/>
  <rect x="20" y="6" width="2" height="2" fill="black"/>
  <rect x="22" y="6" width="2" height="2" fill="black"/>
  <rect x="24" y="6" width="2" height="2" fill="black"/>
  <rect x="26" y="6" width="2" height="2" fill="black"/>
  <rect x="28" y="6" width="2" height="2" fill="black"/>
  
  <!-- Čtvrtý řádek -->
  <rect x="2" y="8" width="2" height="2" fill="black"/>
  <rect x="4" y="8" width="2" height="2" fill="black"/>
  <rect x="6" y="8" width="2" height="2" fill="black"/>
  <rect x="8" y="8" width="2" height="2" fill="black"/>
  <rect x="10" y="8" width="2" height="2" fill="black"/>
  <rect x="12" y="8" width="2" height="2" fill="black"/>
  <rect x="14" y="8" width="2" height="2" fill="black"/>
  <rect x="16" y="8" width="2" height="2" fill="black"/>
  <rect x="18" y="8" width="2" height="2" fill="black"/>
  <rect x="20" y="8" width="2" height="2" fill="black"/>
  <rect x="22" y="8" width="2" height="2" fill="black"/>
  <rect x="24" y="8" width="2" height="2" fill="black"/>
  <rect x="26" y="8" width="2" height="2" fill="black"/>
  <rect x="28" y="8" width="2" height="2" fill="black"/>
  
  <!-- Pátý řádek -->
  <rect x="2" y="10" width="2" height="2" fill="black"/>
  <rect x="4" y="10" width="2" height="2" fill="black"/>
  <rect x="6" y="10" width="2" height="2" fill="black"/>
  <rect x="8" y="10" width="2" height="2" fill="black"/>
  <rect x="10" y="10" width="2" height="2" fill="black"/>
  <rect x="12" y="10" width="2" height="2" fill="black"/>
  <rect x="14" y="10" width="2" height="2" fill="black"/>
  <rect x="16" y="10" width="2" height="2" fill="black"/>
  <rect x="18" y="10" width="2" height="2" fill="black"/>
  <rect x="20" y="10" width="2" height="2" fill="black"/>
  <rect x="22" y="10" width="2" height="2" fill="black"/>
  <rect x="24" y="10" width="2" height="2" fill="black"/>
  <rect x="26" y="10" width="2" height="2" fill="black"/>
  <rect x="28" y="10" width="2" height="2" fill="black"/>
  
  <!-- Šestý řádek -->
  <rect x="2" y="12" width="2" height="2" fill="black"/>
  <rect x="4" y="12" width="2" height="2" fill="black"/>
  <rect x="6" y="12" width="2" height="2" fill="black"/>
  <rect x="8" y="12" width="2" height="2" fill="black"/>
  <rect x="10" y="12" width="2" height="2" fill="black"/>
  <rect x="12" y="12" width="2" height="2" fill="black"/>
  <rect x="14" y="12" width="2" height="2" fill="black"/>
  <rect x="16" y="12" width="2" height="2" fill="black"/>
  <rect x="18" y="12" width="2" height="2" fill="black"/>
  <rect x="20" y="12" width="2" height="2" fill="black"/>
  <rect x="22" y="12" width="2" height="2" fill="black"/>
  <rect x="24" y="12" width="2" height="2" fill="black"/>
  <rect x="26" y="12" width="2" height="2" fill="black"/>
  <rect x="28" y="12" width="2" height="2" fill="black"/>
  
  <!-- Sedmý řádek -->
  <rect x="2" y="14" width="2" height="2" fill="black"/>
  <rect x="4" y="14" width="2" height="2" fill="black"/>
  <rect x="6" y="14" width="2" height="2" fill="black"/>
  <rect x="8" y="14" width="2" height="2" fill="black"/>
  <rect x="10" y="14" width="2" height="2" fill="black"/>
  <rect x="12" y="14" width="2" height="2" fill="black"/>
  <rect x="14" y="14" width="2" height="2" fill="black"/>
  <rect x="16" y="14" width="2" height="2" fill="black"/>
  <rect x="18" y="14" width="2" height="2" fill="black"/>
  <rect x="20" y="14" width="2" height="2" fill="black"/>
  <rect x="22" y="14" width="2" height="2" fill="black"/>
  <rect x="24" y="14" width="2" height="2" fill="black"/>
  <rect x="26" y="14" width="2" height="2" fill="black"/>
  <rect x="28" y="14" width="2" height="2" fill="black"/>
  
  <!-- Osmý řádek -->
  <rect x="2" y="16" width="2" height="2" fill="black"/>
  <rect x="6" y="16" width="2" height="2" fill="black"/>
  <rect x="8" y="16" width="2" height="2" fill="black"/>
  <rect x="10" y="16" width="2" height="2" fill="black"/>
  <rect x="12" y="16" width="2" height="2" fill="black"/>
  <rect x="16" y="16" width="2" height="2" fill="black"/>
  <rect x="18" y="16" width="2" height="2" fill="black"/>
  <rect x="20" y="16" width="2" height="2" fill="black"/>
  <rect x="22" y="16" width="2" height="2" fill="black"/>
  <rect x="24" y="16" width="2" height="2" fill="black"/>
  <rect x="26" y="16" width="2" height="2" fill="black"/>
  <rect x="28" y="16" width="2" height="2" fill="black"/>
  
  <!-- Devátý řádek -->
  <rect x="2" y="18" width="2" height="2" fill="black"/>
  <rect x="4" y="18" width="2" height="2" fill="black"/>
  <rect x="6" y="18" width="2" height="2" fill="black"/>
  <rect x="8" y="18" width="2" height="2" fill="black"/>
  <rect x="10" y="18" width="2" height="2" fill="black"/>
  <rect x="12" y="18" width="2" height="2" fill="black"/>
  <rect x="14" y="18" width="2" height="2" fill="black"/>
  <rect x="16" y="18" width="2" height="2" fill="black"/>
  <rect x="18" y="18" width="2" height="2" fill="black"/>
  <rect x="20" y="18" width="2" height="2" fill="black"/>
  <rect x="22" y="18" width="2" height="2" fill="black"/>
  <rect x="24" y="18" width="2" height="2" fill="black"/>
  <rect x="26" y="18" width="2" height="2" fill="black"/>
  <rect x="28" y="18" width="2" height="2" fill="black"/>
  
  <!-- Desátý řádek -->
  <rect x="2" y="20" width="2" height="2" fill="black"/>
  <rect x="4" y="20" width="2" height="2" fill="black"/>
  <rect x="6" y="20" width="2" height="2" fill="black"/>
  <rect x="8" y="20" width="2" height="2" fill="black"/>
  <rect x="10" y="20" width="2" height="2" fill="black"/>
  <rect x="12" y="20" width="2" height="2" fill="black"/>
  <rect x="14" y="20" width="2" height="2" fill="black"/>
  <rect x="16" y="20" width="2" height="2" fill="black"/>
  <rect x="18" y="20" width="2" height="2" fill="black"/>
  <rect x="20" y="20" width="2" height="2" fill="black"/>
  <rect x="22" y="20" width="2" height="2" fill="black"/>
  <rect x="24" y="20" width="2" height="2" fill="black"/>
  <rect x="26" y="20" width="2" height="2" fill="black"/>
  <rect x="28" y="20" width="2" height="2" fill="black"/>
  
  <!-- Jedenáctý řádek -->
  <rect x="2" y="22" width="2" height="2" fill="black"/>
  <rect x="4" y="22" width="2" height="2" fill="black"/>
  <rect x="6" y="22" width="2" height="2" fill="black"/>
  <rect x="8" y="22" width="2" height="2" fill="black"/>
  <rect x="10" y="22" width="2" height="2" fill="black"/>
  <rect x="12" y="22" width="2" height="2" fill="black"/>
  <rect x="14" y="22" width="2" height="2" fill="black"/>
  <rect x="16" y="22" width="2" height="2" fill="black"/>
  <rect x="18" y="22" width="2" height="2" fill="black"/>
  <rect x="20" y="22" width="2" height="2" fill="black"/>
  <rect x="22" y="22" width="2" height="2" fill="black"/>
  <rect x="24" y="22" width="2" height="2" fill="black"/>
  <rect x="26" y="22" width="2" height="2" fill="black"/>
  <rect x="28" y="22" width="2" height="2" fill="black"/>
  
  <!-- Dvanáctý řádek -->
  <rect x="2" y="24" width="2" height="2" fill="black"/>
  <rect x="6" y="24" width="2" height="2" fill="black"/>
  <rect x="8" y="24" width="2" height="2" fill="black"/>
  <rect x="10" y="24" width="2" height="2" fill="black"/>
  <rect x="12" y="24" width="2" height="2" fill="black"/>
  <rect x="16" y="24" width="2" height="2" fill="black"/>
  <rect x="18" y="24" width="2" height="2" fill="black"/>
  <rect x="20" y="24" width="2" height="2" fill="black"/>
  <rect x="22" y="24" width="2" height="2" fill="black"/>
  <rect x="24" y="24" width="2" height="2" fill="black"/>
  <rect x="26" y="24" width="2" height="2" fill="black"/>
  <rect x="28" y="24" width="2" height="2" fill="black"/>
  
  <!-- Třináctý řádek -->
  <rect x="2" y="26" width="2" height="2" fill="black"/>
  <rect x="4" y="26" width="2" height="2" fill="black"/>
  <rect x="6" y="26" width="2" height="2" fill="black"/>
  <rect x="8" y="26" width="2" height="2" fill="black"/>
  <rect x="10" y="26" width="2" height="2" fill="black"/>
  <rect x="12" y="26" width="2" height="2" fill="black"/>
  <rect x="14" y="26" width="2" height="2" fill="black"/>
  <rect x="16" y="26" width="2" height="2" fill="black"/>
  <rect x="18" y="26" width="2" height="2" fill="black"/>
  <rect x="20" y="26" width="2" height="2" fill="black"/>
  <rect x="22" y="26" width="2" height="2" fill="black"/>
  <rect x="24" y="26" width="2" height="2" fill="black"/>
  <rect x="26" y="26" width="2" height="2" fill="black"/>
  <rect x="28" y="26" width="2" height="2" fill="black"/>
  
  <!-- Čtrnáctý řádek -->
  <rect x="2" y="28" width="2" height="2" fill="black"/>
  <rect x="6" y="28" width="2" height="2" fill="black"/>
  <rect x="8" y="28" width="2" height="2" fill="black"/>
  <rect x="10" y="28" width="2" height="2" fill="black"/>
  <rect x="12" y="28" width="2" height="2" fill="black"/>
  <rect x="16" y="28" width="2" height="2" fill="black"/>
  <rect x="18" y="28" width="2" height="2" fill="black"/>
  <rect x="20" y="28" width="2" height="2" fill="black"/>
  <rect x="22" y="28" width="2" height="2" fill="black"/>
  <rect x="24" y="28" width="2" height="2" fill="black"/>
  <rect x="26" y="28" width="2" height="2" fill="black"/>
  <rect x="28" y="28" width="2" height="2" fill="black"/>
</svg>
