<svg xmlns="http://www.w3.org/2000/svg" viewBox="0 0 32 32" width="32" height="32">
  <!-- Background -->
  <rect width="32" height="32" fill="#ffffff"/>
  
  <!-- QR Code pattern - simplified representation -->
  <!-- Top-left finder pattern -->
  <rect x="2" y="2" width="6" height="6" fill="#000000"/>
  <rect x="3" y="3" width="4" height="4" fill="#ffffff"/>
  <rect x="4" y="4" width="2" height="2" fill="#000000"/>
  
  <!-- Top-right finder pattern -->
  <rect x="24" y="2" width="6" height="6" fill="#000000"/>
  <rect x="25" y="3" width="4" height="4" fill="#ffffff"/>
  <rect x="26" y="4" width="2" height="2" fill="#000000"/>
  
  <!-- Bottom-left finder pattern -->
  <rect x="2" y="24" width="6" height="6" fill="#000000"/>
  <rect x="3" y="25" width="4" height="4" fill="#ffffff"/>
  <rect x="4" y="26" width="2" height="2" fill="#000000"/>
  
  <!-- Timing patterns -->
  <rect x="10" y="4" width="1" height="1" fill="#000000"/>
  <rect x="12" y="4" width="1" height="1" fill="#000000"/>
  <rect x="14" y="4" width="1" height="1" fill="#000000"/>
  <rect x="16" y="4" width="1" height="1" fill="#000000"/>
  <rect x="18" y="4" width="1" height="1" fill="#000000"/>
  <rect x="20" y="4" width="1" height="1" fill="#000000"/>
  
  <rect x="4" y="10" width="1" height="1" fill="#000000"/>
  <rect x="4" y="12" width="1" height="1" fill="#000000"/>
  <rect x="4" y="14" width="1" height="1" fill="#000000"/>
  <rect x="4" y="16" width="1" height="1" fill="#000000"/>
  <rect x="4" y="18" width="1" height="1" fill="#000000"/>
  <rect x="4" y="20" width="1" height="1" fill="#000000"/>
  
  <!-- Data pattern - simplified -->
  <rect x="10" y="10" width="1" height="1" fill="#000000"/>
  <rect x="12" y="10" width="1" height="1" fill="#000000"/>
  <rect x="14" y="10" width="1" height="1" fill="#000000"/>
  <rect x="16" y="10" width="1" height="1" fill="#000000"/>
  <rect x="18" y="10" width="1" height="1" fill="#000000"/>
  <rect x="20" y="10" width="1" height="1" fill="#000000"/>
  
  <rect x="10" y="12" width="1" height="1" fill="#000000"/>
  <rect x="12" y="12" width="1" height="1" fill="#000000"/>
  <rect x="14" y="12" width="1" height="1" fill="#000000"/>
  <rect x="16" y="12" width="1" height="1" fill="#000000"/>
  <rect x="18" y="12" width="1" height="1" fill="#000000"/>
  <rect x="20" y="12" width="1" height="1" fill="#000000"/>
  
  <rect x="10" y="14" width="1" height="1" fill="#000000"/>
  <rect x="12" y="14" width="1" height="1" fill="#000000"/>
  <rect x="14" y="14" width="1" height="1" fill="#000000"/>
  <rect x="16" y="14" width="1" height="1" fill="#000000"/>
  <rect x="18" y="14" width="1" height="1" fill="#000000"/>
  <rect x="20" y="14" width="1" height="1" fill="#000000"/>
  
  <rect x="10" y="16" width="1" height="1" fill="#000000"/>
  <rect x="12" y="16" width="1" height="1" fill="#000000"/>
  <rect x="14" y="16" width="1" height="1" fill="#000000"/>
  <rect x="16" y="16" width="1" height="1" fill="#000000"/>
  <rect x="18" y="16" width="1" height="1" fill="#000000"/>
  <rect x="20" y="16" width="1" height="1" fill="#000000"/>
  
  <rect x="10" y="18" width="1" height="1" fill="#000000"/>
  <rect x="12" y="18" width="1" height="1" fill="#000000"/>
  <rect x="14" y="18" width="1" height="1" fill="#000000"/>
  <rect x="16" y="18" width="1" height="1" fill="#000000"/>
  <rect x="18" y="18" width="1" height="1" fill="#000000"/>
  <rect x="20" y="18" width="1" height="1" fill="#000000"/>
  
  <rect x="10" y="20" width="1" height="1" fill="#000000"/>
  <rect x="12" y="20" width="1" height="1" fill="#000000"/>
  <rect x="14" y="20" width="1" height="1" fill="#000000"/>
  <rect x="16" y="20" width="1" height="1" fill="#000000"/>
  <rect x="18" y="20" width="1" height="1" fill="#000000"/>
  <rect x="20" y="20" width="1" height="1" fill="#000000"/>
  
  <!-- Bottom-right area -->
  <rect x="22" y="10" width="1" height="1" fill="#000000"/>
  <rect x="24" y="10" width="1" height="1" fill="#000000"/>
  <rect x="26" y="10" width="1" height="1" fill="#000000"/>
  <rect x="28" y="10" width="1" height="1" fill="#000000"/>
  
  <rect x="22" y="12" width="1" height="1" fill="#000000"/>
  <rect x="24" y="12" width="1" height="1" fill="#000000"/>
  <rect x="26" y="12" width="1" height="1" fill="#000000"/>
  <rect x="28" y="12" width="1" height="1" fill="#000000"/>
  
  <rect x="22" y="14" width="1" height="1" fill="#000000"/>
  <rect x="24" y="14" width="1" height="1" fill="#000000"/>
  <rect x="26" y="14" width="1" height="1" fill="#000000"/>
  <rect x="28" y="14" width="1" height="1" fill="#000000"/>
  
  <rect x="22" y="16" width="1" height="1" fill="#000000"/>
  <rect x="24" y="16" width="1" height="1" fill="#000000"/>
  <rect x="26" y="16" width="1" height="1" fill="#000000"/>
  <rect x="28" y="16" width="1" height="1" fill="#000000"/>
  
  <rect x="22" y="18" width="1" height="1" fill="#000000"/>
  <rect x="24" y="18" width="1" height="1" fill="#000000"/>
  <rect x="26" y="18" width="1" height="1" fill="#000000"/>
  <rect x="28" y="18" width="1" height="1" fill="#000000"/>
  
  <rect x="22" y="20" width="1" height="1" fill="#000000"/>
  <rect x="24" y="20" width="1" height="1" fill="#000000"/>
  <rect x="26" y="20" width="1" height="1" fill="#000000"/>
  <rect x="28" y="20" width="1" height="1" fill="#000000"/>
  
  <!-- Bottom area -->
  <rect x="10" y="22" width="1" height="1" fill="#000000"/>
  <rect x="12" y="22" width="1" height="1" fill="#000000"/>
  <rect x="14" y="22" width="1" height="1" fill="#000000"/>
  <rect x="16" y="22" width="1" height="1" fill="#000000"/>
  <rect x="18" y="22" width="1" height="1" fill="#000000"/>
  <rect x="20" y="22" width="1" height="1" fill="#000000"/>
  
  <rect x="10" y="24" width="1" height="1" fill="#000000"/>
  <rect x="12" y="24" width="1" height="1" fill="#000000"/>
  <rect x="14" y="24" width="1" height="1" fill="#000000"/>
  <rect x="16" y="24" width="1" height="1" fill="#000000"/>
  <rect x="18" y="24" width="1" height="1" fill="#000000"/>
  <rect x="20" y="24" width="1" height="1" fill="#000000"/>
  
  <rect x="10" y="26" width="1" height="1" fill="#000000"/>
  <rect x="12" y="26" width="1" height="1" fill="#000000"/>
  <rect x="14" y="26" width="1" height="1" fill="#000000"/>
  <rect x="16" y="26" width="1" height="1" fill="#000000"/>
  <rect x="18" y="26" width="1" height="1" fill="#000000"/>
  <rect x="20" y="26" width="1" height="1" fill="#000000"/>
  
  <rect x="10" y="28" width="1" height="1" fill="#000000"/>
  <rect x="12" y="28" width="1" height="1" fill="#000000"/>
  <rect x="14" y="28" width="1" height="1" fill="#000000"/>
  <rect x="16" y="28" width="1" height="1" fill="#000000"/>
  <rect x="18" y="28" width="1" height="1" fill="#000000"/>
  <rect x="20" y="28" width="1" height="1" fill="#000000"/>
  
  <!-- Right area -->
  <rect x="22" y="22" width="1" height="1" fill="#000000"/>
  <rect x="24" y="22" width="1" height="1" fill="#000000"/>
  <rect x="26" y="22" width="1" height="1" fill="#000000"/>
  <rect x="28" y="22" width="1" height="1" fill="#000000"/>
  
  <rect x="22" y="24" width="1" height="1" fill="#000000"/>
  <rect x="24" y="24" width="1" height="1" fill="#000000"/>
  <rect x="26" y="24" width="1" height="1" fill="#000000"/>
  <rect x="28" y="24" width="1" height="1" fill="#000000"/>
  
  <rect x="22" y="26" width="1" height="1" fill="#000000"/>
  <rect x="24" y="26" width="1" height="1" fill="#000000"/>
  <rect x="26" y="26" width="1" height="1" fill="#000000"/>
  <rect x="28" y="26" width="1" height="1" fill="#000000"/>
  
  <rect x="22" y="28" width="1" height="1" fill="#000000"/>
  <rect x="24" y="28" width="1" height="1" fill="#000000"/>
  <rect x="26" y="28" width="1" height="1" fill="#000000"/>
  <rect x="28" y="28" width="1" height="1" fill="#000000"/>
</svg>
